<svg id="visual" viewBox="0 0 900 600" width="900" height="600" xmlns="http://www.w3.org/2000/svg" xmlns:xlink="http://www.w3.org/1999/xlink" version="1.1"><rect x="0" y="0" width="900" height="600" fill="#b6b4bd33"></rect><defs><linearGradient id="grad1_0" x1="33.3%" y1="0%" x2="100%" y2="100%"><stop offset="20%" stop-color="#2e2e33" stop-opacity="1"></stop><stop offset="80%" stop-color="#2e2e33" stop-opacity="1"></stop></linearGradient></defs><defs><linearGradient id="grad2_0" x1="0%" y1="0%" x2="66.7%" y2="100%"><stop offset="20%" stop-color="#2e2e33" stop-opacity="1"></stop><stop offset="80%" stop-color="#2e2e33" stop-opacity="1"></stop></linearGradient></defs><g transform="translate(900, 0)"><path d="M0 405.6C-30.5 366.8 -61 327.9 -104.1 320.5C-147.3 313.1 -203.2 337 -233.4 321.2C-263.5 305.3 -267.9 249.7 -292.9 212.8C-317.9 175.9 -363.5 157.7 -385.8 125.3C-408 93 -406.8 46.5 -405.6 0L0 0Z" fill="#1553f9"></path></g><g transform="translate(0, 600)"><path d="M0 -405.6C44.4 -405.4 88.8 -405.2 125.3 -385.8C161.9 -366.3 190.6 -327.6 214 -294.5C237.3 -261.3 255.4 -233.7 286.4 -208.1C317.4 -182.5 361.3 -158.9 383.3 -124.5C405.3 -90.2 405.5 -45.1 405.6 0L0 0Z" fill="#1553f9"></path></g></svg>